<svg width="256" height="46" viewBox="0 0 256 46" fill="none" xmlns="http://www.w3.org/2000/svg">
<path d="M35.0352 42.9492L20.3867 43.6523L20.2695 30.1172H13.5312L13.1211 42.9492H-0.00390625L1.10938 1.75781L15.0547 2.40234L14.1758 23.4375H20.6797L20.7383 0.820312L34.0977 1.17188L35.0352 42.9492ZM72.7402 1.69922C71.8613 8.57422 71.1094 15.4199 70.4844 22.2363C69.8594 29.0332 69.2637 35.8789 68.6973 42.7734L56.6855 43.6523L57.2129 39.1406C56.8223 39.5898 56.3633 39.9805 55.8359 40.3125C55.3281 40.6445 54.7812 40.918 54.1953 41.1328C53.6094 41.3281 53.0039 41.4746 52.3789 41.5723C51.7539 41.6504 51.1582 41.6797 50.5918 41.6602C49.2637 41.6406 48.0137 41.3867 46.8418 40.8984C45.6699 40.3906 44.5957 39.7266 43.6191 38.9062C42.6426 38.0664 41.7637 37.0996 40.9824 36.0059C40.2012 34.8926 39.5371 33.7305 38.9902 32.5195C38.4629 31.2891 38.0527 30.0391 37.7598 28.7695C37.4863 27.5 37.3496 26.2695 37.3496 25.0781C37.3496 23.3203 37.3789 21.5039 37.4375 19.6289C37.5156 17.7344 37.6426 15.8398 37.8184 13.9453C37.9941 12.0508 38.2188 10.1758 38.4922 8.32031C38.7852 6.46484 39.1465 4.6875 39.5762 2.98828C41.959 3.10547 44.3516 3.21289 46.7539 3.31055C49.1562 3.4082 51.5488 3.4375 53.9316 3.39844C53.4824 5.09766 53.0332 6.80664 52.584 8.52539C52.1543 10.2246 51.7637 11.9434 51.4121 13.6816C51.0605 15.4004 50.7773 17.1289 50.5625 18.8672C50.3477 20.6055 50.2402 22.3633 50.2402 24.1406C50.2402 24.5508 50.2598 25.1367 50.2988 25.8984C50.3379 26.6602 50.4355 27.4121 50.5918 28.1543C50.7676 28.8965 51.0215 29.5508 51.3535 30.1172C51.7051 30.6641 52.1934 30.9375 52.8184 30.9375C53.5605 30.9375 54.2246 30.625 54.8105 30C55.3965 29.3555 55.9141 28.4961 56.3633 27.4219C56.8125 26.3477 57.1934 25.1074 57.5059 23.7012C57.8379 22.2949 58.1113 20.8301 58.3262 19.3066C58.5605 17.7637 58.7461 16.2109 58.8828 14.6484C59.0195 13.0859 59.1172 11.6211 59.1758 10.2539C59.2539 8.86719 59.3027 7.62695 59.3223 6.5332C59.3613 5.43945 59.3809 4.58984 59.3809 3.98438C59.3809 3.59375 59.3711 3.21289 59.3516 2.8418C59.332 2.4707 59.3027 2.08984 59.2637 1.69922C60.5332 1.73828 61.793 1.76758 63.043 1.78711C64.293 1.80664 65.5527 1.81641 66.8223 1.81641C67.7988 1.81641 68.7754 1.81641 69.752 1.81641C70.748 1.79687 71.7441 1.75781 72.7402 1.69922ZM110.855 28.125C110.855 30.332 110.826 32.5195 110.768 34.6875C110.729 36.8359 110.66 39.0039 110.562 41.1914L93.6875 40.8984C94.2734 37.4414 94.7812 33.9941 95.2109 30.5566C95.6406 27.0996 95.8555 23.6133 95.8555 20.0977C95.8555 19.8438 95.8457 19.4336 95.8262 18.8672C95.8066 18.3008 95.7676 17.666 95.709 16.9629C95.6504 16.2402 95.5625 15.5078 95.4453 14.7656C95.3477 14.0039 95.2012 13.3105 95.0059 12.6855C94.8301 12.0605 94.6055 11.5527 94.332 11.1621C94.0781 10.752 93.7656 10.5469 93.3945 10.5469C92.7305 10.5469 92.1641 10.7422 91.6953 11.1328C91.2461 11.5234 90.8652 12.0313 90.5527 12.6562C90.2598 13.2617 90.0254 13.9453 89.8496 14.707C89.6738 15.4688 89.5371 16.2305 89.4395 16.9922C89.3613 17.7539 89.3027 18.4766 89.2637 19.1602C89.2441 19.8242 89.2344 20.3711 89.2344 20.8008C89.1367 24.2578 89.0586 27.6953 89 31.1133C88.9414 34.5117 88.8633 37.9492 88.7656 41.4258L73.8242 42.0703C74.2148 35.1758 74.5859 28.3203 74.9375 21.5039C75.3086 14.6875 75.6016 7.83203 75.8164 0.9375L89.6445 0.234375L89.5273 4.92188C90.0742 4.25781 90.6602 3.63281 91.2852 3.04688C91.9297 2.46094 92.6133 1.96289 93.3359 1.55273C94.0586 1.12305 94.8203 0.791016 95.6211 0.556641C96.4414 0.302734 97.3008 0.175781 98.1992 0.175781C99.8594 0.175781 101.314 0.449219 102.564 0.996094C103.814 1.54297 104.889 2.28516 105.787 3.22266C106.686 4.16016 107.438 5.27344 108.043 6.5625C108.648 7.83203 109.137 9.18945 109.508 10.6348C109.879 12.0801 110.162 13.5938 110.357 15.1758C110.553 16.7383 110.68 18.2812 110.738 19.8047C110.816 21.3281 110.855 22.8027 110.855 24.2285C110.855 25.6543 110.855 26.9531 110.855 28.125ZM149.059 36.3867C148.141 37.5391 147.008 38.5449 145.66 39.4043C144.312 40.2637 142.867 40.9766 141.324 41.543C139.781 42.1094 138.199 42.5391 136.578 42.832C134.957 43.1055 133.414 43.2422 131.949 43.2422C129.117 43.2422 126.51 42.7637 124.127 41.8066C121.744 40.8496 119.684 39.5215 117.945 37.8223C116.227 36.1035 114.879 34.0625 113.902 31.6992C112.926 29.3359 112.438 26.7578 112.438 23.9648C112.438 21.8359 112.682 19.7656 113.17 17.7539C113.658 15.7422 114.352 13.8574 115.25 12.0996C116.168 10.3418 117.281 8.73047 118.59 7.26562C119.898 5.80078 121.383 4.54102 123.043 3.48633C124.703 2.43164 126.52 1.62109 128.492 1.05469C130.484 0.46875 132.594 0.175781 134.82 0.175781C135.66 0.175781 136.559 0.214844 137.516 0.292969C138.473 0.351562 139.42 0.46875 140.357 0.644531C141.314 0.800781 142.242 1.02539 143.141 1.31836C144.039 1.61133 144.859 1.97266 145.602 2.40234L144.781 13.5938C143.688 13.1836 142.555 12.9102 141.383 12.7734C140.23 12.6172 139.098 12.5391 137.984 12.5391C136.422 12.5391 134.957 12.7539 133.59 13.1836C132.242 13.5938 131.061 14.209 130.045 15.0293C129.049 15.8496 128.258 16.875 127.672 18.1055C127.086 19.3359 126.793 20.7617 126.793 22.3828C126.793 23.3984 126.93 24.3848 127.203 25.3418C127.477 26.2793 127.887 27.1191 128.434 27.8613C129 28.584 129.693 29.1699 130.514 29.6191C131.354 30.0684 132.32 30.293 133.414 30.293C134.156 30.293 134.918 30.1953 135.699 30C136.5 29.8047 137.184 29.4727 137.75 29.0039L137.867 26.7188L130.836 26.6016L131.188 17.8125C134.098 17.7148 137.008 17.6367 139.918 17.5781C142.828 17.5 145.758 17.4023 148.707 17.2852L149.059 36.3867ZM185.65 14.707C185.65 16.2305 185.514 17.6172 185.24 18.8672C184.986 20.0977 184.576 21.2305 184.01 22.2656C183.443 23.3008 182.711 24.2578 181.812 25.1367C180.914 26.0156 179.83 26.8555 178.561 27.6562L185.533 40.0781L172.35 42.6562L167.838 30.1758L164.205 30.293L163.678 42.4805H151.08C151.178 38.0273 151.266 33.5938 151.344 29.1797C151.441 24.7656 151.549 20.332 151.666 15.8789C151.705 13.6328 151.744 11.4062 151.783 9.19922C151.822 6.99219 151.9 4.76563 152.018 2.51953C153.385 2.01172 154.732 1.5918 156.061 1.25977C157.389 0.927734 158.717 0.673828 160.045 0.498047C161.393 0.302734 162.75 0.175781 164.117 0.117188C165.504 0.0390625 166.92 0 168.365 0C170.592 0 172.74 0.3125 174.811 0.9375C176.9 1.54297 178.746 2.46094 180.348 3.69141C181.949 4.92188 183.229 6.45508 184.186 8.29102C185.162 10.127 185.65 12.2656 185.65 14.707ZM172.525 15.6445C172.525 14.8242 172.408 14.0723 172.174 13.3887C171.959 12.7051 171.627 12.1191 171.178 11.6309C170.748 11.123 170.201 10.7324 169.537 10.459C168.893 10.166 168.131 10.0195 167.252 10.0195C166.861 10.0195 166.48 10.0488 166.109 10.1074C165.738 10.1465 165.377 10.2148 165.025 10.3125L164.557 21.2109H165.26C166.1 21.2109 166.949 21.1035 167.809 20.8887C168.688 20.6738 169.469 20.3418 170.152 19.8926C170.855 19.4434 171.422 18.8672 171.852 18.1641C172.301 17.4609 172.525 16.6211 172.525 15.6445ZM223.18 3.28125L209.41 25.7812L209.82 42.3633H194.762L195.113 25.8984L184.391 4.16016L199.332 2.28516L204.02 14.9414L209.117 2.28516L223.18 3.28125ZM242.018 31.5234H232.115C231.979 29.4531 232.096 27.7246 232.467 26.3379C232.838 24.9316 233.336 23.7695 233.961 22.8516C234.605 21.9141 235.318 21.1621 236.1 20.5957C236.9 20.0098 237.672 19.5117 238.414 19.1016C239.176 18.6719 239.84 18.2617 240.406 17.8711C240.992 17.4805 241.393 16.9922 241.607 16.4062C241.744 16.0547 241.783 15.6543 241.725 15.2051C241.666 14.7363 241.461 14.2969 241.109 13.8867C240.777 13.4766 240.27 13.1348 239.586 12.8613C238.922 12.5684 238.053 12.4219 236.979 12.4219C236.275 12.4219 235.436 12.4902 234.459 12.627C233.502 12.7441 232.496 12.9395 231.441 13.2129C230.387 13.4668 229.342 13.7891 228.307 14.1797C227.291 14.5508 226.373 14.9805 225.553 15.4688L224.264 3.98438C224.986 3.55469 225.797 3.11523 226.695 2.66602C227.613 2.19727 228.619 1.78711 229.713 1.43555C230.807 1.06445 231.998 0.761719 233.287 0.527344C234.576 0.292969 235.963 0.175781 237.447 0.175781C239.85 0.175781 242.115 0.507812 244.244 1.17188C246.393 1.83594 248.268 2.8125 249.869 4.10156C251.471 5.39062 252.74 6.98242 253.678 8.87695C254.615 10.752 255.084 12.9102 255.084 15.3516C255.084 17.207 254.82 18.7012 254.293 19.834C253.766 20.9473 253.092 21.8652 252.271 22.5879C251.451 23.3105 250.533 23.916 249.518 24.4043C248.502 24.8926 247.506 25.4297 246.529 26.0156C245.572 26.582 244.684 27.2852 243.863 28.125C243.062 28.9648 242.447 30.0977 242.018 31.5234ZM243.482 39.2578C243.482 40.1172 243.316 40.918 242.984 41.6602C242.652 42.4023 242.203 43.0469 241.637 43.5938C241.09 44.1602 240.445 44.5996 239.703 44.9121C238.961 45.2441 238.17 45.4102 237.33 45.4102C236.471 45.4102 235.67 45.2441 234.928 44.9121C234.186 44.5996 233.531 44.1602 232.965 43.5938C232.418 43.0469 231.979 42.4023 231.646 41.6602C231.334 40.918 231.178 40.1172 231.178 39.2578C231.178 38.418 231.334 37.6172 231.646 36.8555C231.979 36.0938 232.418 35.4395 232.965 34.8926C233.531 34.3262 234.186 33.877 234.928 33.5449C235.67 33.2129 236.471 33.0469 237.33 33.0469C238.17 33.0469 238.961 33.2129 239.703 33.5449C240.445 33.877 241.09 34.3262 241.637 34.8926C242.203 35.4395 242.652 36.0938 242.984 36.8555C243.316 37.6172 243.482 38.418 243.482 39.2578Z" fill="white"/>
</svg>
